{
  "asset": {
    "version": "2.0",
    "generator": "Beauty Multi-Room Gallery Generator"
  },
  "scene": 0,
  "scenes": [
    {
      "nodes": [
        0
      ]
    }
  ],
  "nodes": [
    {
      "mesh": 0,
      "name": "Gallery"
    }
  ],
  "meshes": [
    {
      "name": "GalleryMesh",
      "primitives": [
        {
          "attributes": {
            "POSITION": 0,
            "NORMAL": 1,
            "TEXCOORD_0": 2
          },
          "indices": 3,
          "material": 0
        },
        {
          "attributes": {
            "POSITION": 0,
            "NORMAL": 1,
            "TEXCOORD_0": 2
          },
          "indices": 4,
          "material": 1
        },
        {
          "attributes": {
            "POSITION": 0,
            "NORMAL": 1,
            "TEXCOORD_0": 2
          },
          "indices": 5,
          "material": 2
        }
      ]
    }
  ],
  "materials": [
    {
      "name": "Floor",
      "pbrMetallicRoughness": {
        "baseColorTexture": {
          "index": 0
        },
        "metallicFactor": 0.05,
        "roughnessFactor": 0.4
      },
      "doubleSided": true
    },
    {
      "name": "Ceiling",
      "pbrMetallicRoughness": {
        "baseColorTexture": {
          "index": 2
        },
        "metallicFactor": 0.0,
        "roughnessFactor": 0.95
      },
      "doubleSided": true
    },
    {
      "name": "Wall",
      "pbrMetallicRoughness": {
        "baseColorTexture": {
          "index": 1
        },
        "metallicFactor": 0.0,
        "roughnessFactor": 0.85
      },
      "doubleSided": true
    }
  ],
  "textures": [
    {
      "source": 0,
      "sampler": 0
    },
    {
      "source": 1,
      "sampler": 0
    },
    {
      "source": 2,
      "sampler": 0
    }
  ],
  "samplers": [
    {
      "magFilter": 9729,
      "minFilter": 9987,
      "wrapS": 10497,
      "wrapT": 10497
    }
  ],
  "images": [
    {
      "uri": "textures/floor_basecolor.png"
    },
    {
      "uri": "textures/wall_basecolor.png"
    },
    {
      "uri": "textures/ceiling_basecolor.png"
    }
  ],
  "buffers": [
    {
      "uri": "data:application/octet-stream;base64,",
      "byteLength": 2240
    }
  ],
  "bufferViews": [
    {
      "buffer": 0,
      "byteOffset": 0,
      "byteLength": 768,
      "target": 34962
    },
    {
      "buffer": 0,
      "byteOffset": 768,
      "byteLength": 768,
      "target": 34962
    },
    {
      "buffer": 0,
      "byteOffset": 1536,
      "byteLength": 512,
      "target": 34962
    },
    {
      "buffer": 0,
      "byteOffset": 2048,
      "byteLength": 192,
      "target": 34963
    }
  ],
  "accessors": [
    {
      "bufferView": 0,
      "componentType": 5126,
      "count": 64,
      "type": "VEC3",
      "min": [
        -12.5,
        0.0,
        -17.5
      ],
      "max": [
        12.5,
        12.0,
        17.5
      ]
    },
    {
      "bufferView": 1,
      "componentType": 5126,
      "count": 64,
      "type": "VEC3"
    },
    {
      "bufferView": 2,
      "componentType": 5126,
      "count": 64,
      "type": "VEC2"
    },
    {
      "bufferView": 3,
      "byteOffset": 0,
      "componentType": 5123,
      "count": 6,
      "type": "SCALAR"
    },
    {
      "bufferView": 3,
      "byteOffset": 12,
      "componentType": 5123,
      "count": 6,
      "type": "SCALAR"
    },
    {
      "bufferView": 3,
      "byteOffset": 24,
      "componentType": 5123,
      "count": 84,
      "type": "SCALAR"
    }
  ]
}