{"accessors":[{"bufferView":2,"componentType":5126,"count":36,"max":[20.564167022705078,7.5,0.10000000149011612],"min":[-10.0,-7.5,-2.043386220932007],"type":"VEC3"},{"bufferView":2,"byteOffset":432,"componentType":5126,"count":36,"max":[1.0,0.0,1.0],"min":[0.0,0.0,0.0],"type":"VEC3"},{"bufferView":1,"componentType":5126,"count":36,"max":[0.9818751811981201,0.7010224461555481],"min":[0.0029588639736175537,0.0029588639736175537],"type":"VEC2"},{"bufferView":1,"byteOffset":288,"componentType":5126,"count":36,"max":[0.9818751811981201,0.7010224461555481],"min":[0.0029588639736175537,0.0029588639736175537],"type":"VEC2"},{"bufferView":0,"componentType":5125,"count":108,"type":"SCALAR"},{"bufferView":2,"byteOffset":864,"componentType":5126,"count":1419,"max":[20.49551010131836,7.5,4.922205448150635],"min":[-10.0,-7.5,-1.7429192066192627],"type":"VEC3"},{"bufferView":2,"byteOffset":17892,"componentType":5126,"count":1419,"max":[1.0,1.0,1.0],"min":[-1.0,-1.0,-0.9908969402313232],"type":"VEC3"},{"bufferView":1,"byteOffset":576,"componentType":5126,"count":1419,"max":[0.9831722974777222,0.9989190101623535],"min":[0.09520483016967773,0.0010814666748046875],"type":"VEC2"},{"bufferView":1,"byteOffset":11928,"componentType":5126,"count":1419,"max":[0.9831722974777222,0.9989190101623535],"min":[0.09520483016967773,0.0010814666748046875],"type":"VEC2"},{"bufferView":0,"byteOffset":432,"componentType":5125,"count":2934,"type":"SCALAR"},{"bufferView":2,"byteOffset":34920,"componentType":5126,"count":1300,"max":[12.861287117004395,3.578400135040283,2.0399999618530273],"min":[-1.9486796855926514,-0.030000008642673492,0.0],"type":"VEC3"},{"bufferView":2,"byteOffset":50520,"componentType":5126,"count":1300,"max":[1.0,1.0,1.0],"min":[-1.0,-1.0,-0.011075976304709911],"type":"VEC3"},{"bufferView":1,"byteOffset":23280,"componentType":5126,"count":1300,"max":[0.9970409870147705,0.9926499128341675],"min":[0.0029588937759399414,0.0029588937759399414],"type":"VEC2"},{"bufferView":1,"byteOffset":33680,"componentType":5126,"count":1300,"max":[0.9970409870147705,0.9926499128341675],"min":[0.0029588937759399414,0.0029588937759399414],"type":"VEC2"},{"bufferView":0,"byteOffset":12168,"componentType":5125,"count":2304,"type":"SCALAR"},{"bufferView":2,"byteOffset":66120,"componentType":5126,"count":575,"max":[20.549930572509766,7.460066795349121,2.205582857131958],"min":[-10.034797668457031,-7.460066795349121,-6.52179778626305e-07],"type":"VEC3"},{"bufferView":2,"byteOffset":73020,"componentType":5126,"count":575,"max":[1.0,1.0,2.0149371948718908e-07],"min":[-1.0,-1.0,-1.0],"type":"VEC3"},{"bufferView":1,"byteOffset":44080,"componentType":5126,"count":575,"max":[0.9803764224052429,0.9847916960716248],"min":[0.0010814666748046875,0.0010814666748046875],"type":"VEC2"},{"bufferView":1,"byteOffset":48680,"componentType":5126,"count":575,"max":[0.9803764224052429,0.9847916960716248],"min":[0.0010814666748046875,0.0010814666748046875],"type":"VEC2"},{"bufferView":0,"byteOffset":21384,"componentType":5125,"count":834,"type":"SCALAR"},{"bufferView":2,"byteOffset":79920,"componentType":5126,"count":14966,"max":[331.4727783203125,671.7918701171875,311.7222900390625],"min":[-280.89886474609375,-22.8935604095459,-261.4988708496094],"type":"VEC3"},{"bufferView":2,"byteOffset":259512,"componentType":5126,"count":14966,"max":[0.999997615814209,0.9999563694000244,0.9994134902954102],"min":[-0.9992809891700745,-0.9999486207962036,-0.9998502731323242],"type":"VEC3"},{"bufferView":3,"componentType":5126,"count":14966,"max":[0.9999184012413025,0.9998353719711304,0.9990383386611938,1.0],"min":[-0.9999644756317139,-0.9999498128890991,-0.9998574256896973,-1.0],"type":"VEC4"},{"bufferView":1,"byteOffset":53280,"componentType":5126,"count":14966,"max":[0.9987964034080505,0.9976423382759094],"min":[0.0012036534026265144,0.0012036263942718506],"type":"VEC2"},{"bufferView":1,"byteOffset":173008,"componentType":5126,"count":14966,"max":[0.9987964034080505,0.9976423382759094],"min":[0.0012036534026265144,0.0012036263942718506],"type":"VEC2"},{"bufferView":0,"byteOffset":24720,"componentType":5125,"count":57066,"type":"SCALAR"},{"bufferView":2,"byteOffset":439104,"componentType":5126,"count":12994,"max":[1.6139309406280518,7.367098808288574,1.1528737545013428],"min":[-1.3937313556671143,0.07921343296766281,-1.249392032623291],"type":"VEC3"},{"bufferView":2,"byteOffset":595032,"componentType":5126,"count":12994,"max":[0.9998111724853516,0.9995787739753723,0.9999950528144836],"min":[-0.999955952167511,-0.9999681115150452,-0.9999958276748657],"type":"VEC3"},{"bufferView":3,"byteOffset":239456,"componentType":5126,"count":12994,"max":[0.9999430179595947,0.9867591261863708,0.9999675750732422,1.0],"min":[-0.9999659061431885,-0.9999986886978149,-0.9999957084655762,-1.0],"type":"VEC4"},{"bufferView":1,"byteOffset":292736,"componentType":5126,"count":12994,"max":[0.983390212059021,0.9977364540100098],"min":[0.0022635459899902344,0.0022635459899902344],"type":"VEC2"},{"bufferView":0,"byteOffset":252984,"componentType":5125,"count":60678,"type":"SCALAR"},{"bufferView":2,"byteOffset":750960,"componentType":5126,"count":20,"max":[1.0,1.0,1.0],"min":[-1.0,-1.0,-1.0],"type":"VEC3"},{"bufferView":2,"byteOffset":751200,"componentType":5126,"count":20,"max":[1.0,1.0,1.0],"min":[-1.0,-1.0,0.0],"type":"VEC3"},{"bufferView":1,"byteOffset":396688,"componentType":5126,"count":20,"max":[0.4307182729244232,0.3223986029624939],"min":[0.002560761058703065,0.002560749650001526],"type":"VEC2"},{"bufferView":1,"byteOffset":396848,"componentType":5126,"count":20,"max":[0.4307182729244232,0.3223986029624939],"min":[0.002560761058703065,0.002560749650001526],"type":"VEC2"},{"bufferView":0,"byteOffset":495696,"componentType":5125,"count":30,"type":"SCALAR"},{"bufferView":2,"byteOffset":751440,"componentType":5126,"count":472,"max":[10.787206649780273,0.04609917476773262,3.226942300796509],"min":[-3.595735549926758,-0.03841597959399223,0.0],"type":"VEC3"},{"bufferView":2,"byteOffset":757104,"componentType":5126,"count":472,"max":[1.0,1.0,1.0],"min":[-1.0,0.0,-1.0],"type":"VEC3"},{"bufferView":1,"byteOffset":397008,"componentType":5126,"count":472,"max":[0.9661893844604492,0.9824673533439636],"min":[0.014496207237243652,0.002560734748840332],"type":"VEC2"},{"bufferView":1,"byteOffset":400784,"componentType":5126,"count":472,"max":[0.9661893844604492,0.9824673533439636],"min":[0.014496207237243652,0.002560734748840332],"type":"VEC2"},{"bufferView":0,"byteOffset":495816,"componentType":5125,"count":732,"type":"SCALAR"},{"bufferView":2,"byteOffset":762768,"componentType":5126,"count":1496,"max":[16.17324447631836,5.931654930114746,0.5527215003967285],"min":[-0.0705765038728714,-5.931654930114746,0.06584110110998154],"type":"VEC3"},{"bufferView":2,"byteOffset":780720,"componentType":5126,"count":1496,"max":[0.9292829036712646,0.9490901827812195,0.9610415101051331],"min":[-0.9299145936965942,-0.9490901827812195,-0.9887048602104187],"type":"VEC3"},{"bufferView":1,"byteOffset":404560,"componentType":5126,"count":1496,"max":[0.974175751209259,0.9945348501205444],"min":[0.1581973433494568,0.09162190556526184],"type":"VEC2"},{"bufferView":1,"byteOffset":416528,"componentType":5126,"count":1496,"max":[0.974175751209259,0.9945348501205444],"min":[0.1581973433494568,0.09162190556526184],"type":"VEC2"},{"bufferView":0,"byteOffset":498744,"componentType":5125,"count":5280,"type":"SCALAR"},{"bufferView":2,"byteOffset":798672,"componentType":5126,"count":1320,"max":[18.617431640625,3.832129716873169,2.2108941078186035],"min":[-6.303825855255127,-3.819927215576172,0.276386022567749],"type":"VEC3"},{"bufferView":2,"byteOffset":814512,"componentType":5126,"count":1320,"max":[1.0,1.0,1.0],"min":[-1.0,-1.0,-1.0],"type":"VEC3"},{"bufferView":1,"byteOffset":428496,"componentType":5126,"count":1320,"max":[0.9825944304466248,0.991807758808136],"min":[0.0025607645511627197,0.0897245854139328],"type":"VEC2"},{"bufferView":1,"byteOffset":439056,"componentType":5126,"count":1320,"max":[0.9825944304466248,0.991807758808136],"min":[0.0025607645511627197,0.0897245854139328],"type":"VEC2"},{"bufferView":0,"byteOffset":519864,"componentType":5125,"count":1872,"type":"SCALAR"},{"bufferView":2,"byteOffset":830352,"componentType":5126,"count":5920,"max":[15.786236763000488,6.7398600578308105,0.226140096783638],"min":[-11.62139892578125,-6.7398600578308105,-2.337043046951294],"type":"VEC3"},{"bufferView":2,"byteOffset":901392,"componentType":5126,"count":5920,"max":[0.9999753832817078,0.9999755024909973,1.0],"min":[-0.9999753832817078,-0.9999755024909973,-1.0],"type":"VEC3"},{"bufferView":1,"byteOffset":449616,"componentType":5126,"count":5920,"max":[0.9951305985450745,0.9971951246261597],"min":[0.002560734748840332,0.002560734748840332],"type":"VEC2"},{"bufferView":1,"byteOffset":496976,"componentType":5126,"count":5920,"max":[0.9951305985450745,0.9971951246261597],"min":[0.002560734748840332,0.002560734748840332],"type":"VEC2"},{"bufferView":0,"byteOffset":527352,"componentType":5125,"count":8904,"type":"SCALAR"},{"bufferView":2,"byteOffset":972432,"componentType":5126,"count":176,"max":[21.189729690551758,0.05785036087036133,0.060501664876937866],"min":[-9.38733959197998,-15.016145706176758,-6.4341630935668945],"type":"VEC3"},{"bufferView":2,"byteOffset":974544,"componentType":5126,"count":176,"max":[1.0,1.0,1.0],"min":[-1.0,-1.0,-1.0],"type":"VEC3"},{"bufferView":1,"byteOffset":544336,"componentType":5126,"count":176,"max":[0.9477783441543579,0.9935948252677917],"min":[0.04906588792800903,0.09995052218437195],"type":"VEC2"},{"bufferView":1,"byteOffset":545744,"componentType":5126,"count":176,"max":[0.9477783441543579,0.9935948252677917],"min":[0.04906588792800903,0.09995052218437195],"type":"VEC2"},{"bufferView":0,"byteOffset":562968,"componentType":5125,"count":264,"type":"SCALAR"},{"bufferView":2,"byteOffset":976656,"componentType":5126,"count":20,"max":[1.0,1.0,1.0],"min":[-1.0,-1.0,-1.0],"type":"VEC3"},{"bufferView":2,"byteOffset":976896,"componentType":5126,"count":20,"max":[1.0,1.0,1.0],"min":[-1.0,0.0,-1.0],"type":"VEC3"},{"bufferView":1,"byteOffset":547152,"componentType":5126,"count":20,"max":[0.3223985731601715,0.3223986029624939],"min":[0.0025607645511627197,0.002560749650001526],"type":"VEC2"},{"bufferView":1,"byteOffset":547312,"componentType":5126,"count":20,"max":[0.3223985731601715,0.3223986029624939],"min":[0.0025607645511627197,0.002560749650001526],"type":"VEC2"},{"bufferView":0,"byteOffset":564024,"componentType":5125,"count":30,"type":"SCALAR"},{"bufferView":2,"byteOffset":977136,"componentType":5126,"count":3686,"max":[0.8600000143051147,0.09333331137895584,4.358897686004639],"min":[-12.77947998046875,-0.04666665568947792,0.0],"type":"VEC3"},{"bufferView":2,"byteOffset":1021368,"componentType":5126,"count":3686,"max":[1.0,1.0,1.0],"min":[-1.0,-1.0,-1.0],"type":"VEC3"},{"bufferView":1,"byteOffset":547472,"componentType":5126,"count":3686,"max":[0.9974392652511597,0.9966008067131042],"min":[0.002560734748840332,0.002560734748840332],"type":"VEC2"},{"bufferView":1,"byteOffset":576960,"componentType":5126,"count":3686,"max":[0.9974392652511597,0.9966008067131042],"min":[0.002560734748840332,0.002560734748840332],"type":"VEC2"},{"bufferView":0,"byteOffset":564144,"componentType":5125,"count":12696,"type":"SCALAR"},{"bufferView":2,"byteOffset":1065600,"componentType":5126,"count":255,"max":[15.983263969421387,0.6811493039131165,0.2656852602958679],"min":[15.381871223449707,-0.48050758242607117,0.20918458700180054],"type":"VEC3"},{"bufferView":2,"byteOffset":1068660,"componentType":5126,"count":255,"max":[0.8360856771469116,0.8138731122016907,0.4747551679611206],"min":[-0.8360569477081299,-0.855370283126831,-0.9596785306930542],"type":"VEC3"},{"bufferView":1,"byteOffset":606448,"componentType":5126,"count":255,"max":[0.6788277626037598,0.994166910648346],"min":[0.1581973433494568,0.09754574298858643],"type":"VEC2"},{"bufferView":1,"byteOffset":608488,"componentType":5126,"count":255,"max":[0.6788277626037598,0.994166910648346],"min":[0.1581973433494568,0.09754574298858643],"type":"VEC2"},{"bufferView":0,"byteOffset":614928,"componentType":5125,"count":900,"type":"SCALAR"},{"bufferView":4,"componentType":5126,"count":4,"type":"VEC3","min":[-0.4818181818181818,-0.7,0],"max":[0.4818181818181818,0.7,0]},{"bufferView":5,"componentType":5126,"count":4,"type":"VEC3"},{"bufferView":6,"componentType":5126,"count":4,"type":"VEC2"},{"bufferView":7,"componentType":5123,"count":6,"type":"SCALAR"},{"bufferView":8,"componentType":5126,"count":24,"type":"VEC3","min":[-0.5418181818181818,-0.76,-0.025],"max":[0.5418181818181818,0.76,0.025]},{"bufferView":9,"componentType":5126,"count":24,"type":"VEC3"},{"bufferView":10,"componentType":5123,"count":36,"type":"SCALAR"},{"bufferView":11,"componentType":5126,"count":4,"type":"VEC3","min":[-1.0,-0.6464968152866242,0],"max":[1.0,0.6464968152866242,0]},{"bufferView":12,"componentType":5126,"count":4,"type":"VEC3"},{"bufferView":13,"componentType":5126,"count":4,"type":"VEC2"},{"bufferView":14,"componentType":5123,"count":6,"type":"SCALAR"},{"bufferView":15,"componentType":5126,"count":24,"type":"VEC3","min":[-1.06,-0.7064968152866242,-0.025],"max":[1.06,0.7064968152866242,0.025]},{"bufferView":16,"componentType":5126,"count":24,"type":"VEC3"},{"bufferView":17,"componentType":5123,"count":36,"type":"SCALAR"},{"bufferView":18,"componentType":5126,"count":4,"type":"VEC3","min":[-1.0,-0.6493506493506493,0],"max":[1.0,0.6493506493506493,0]},{"bufferView":19,"componentType":5126,"count":4,"type":"VEC3"},{"bufferView":20,"componentType":5126,"count":4,"type":"VEC2"},{"bufferView":21,"componentType":5123,"count":6,"type":"SCALAR"},{"bufferView":22,"componentType":5126,"count":24,"type":"VEC3","min":[-1.06,-0.7093506493506494,-0.025],"max":[1.06,0.7093506493506494,0.025]},{"bufferView":23,"componentType":5126,"count":24,"type":"VEC3"},{"bufferView":24,"componentType":5123,"count":36,"type":"SCALAR"},{"bufferView":25,"componentType":5126,"count":4,"type":"VEC3","min":[-0.7620689655172415,-0.9,0],"max":[0.7620689655172415,0.9,0]},{"bufferView":26,"componentType":5126,"count":4,"type":"VEC3"},{"bufferView":27,"componentType":5126,"count":4,"type":"VEC2"},{"bufferView":28,"componentType":5123,"count":6,"type":"SCALAR"},{"bufferView":29,"componentType":5126,"count":24,"type":"VEC3","min":[-0.8220689655172415,-0.96,-0.025],"max":[0.8220689655172415,0.96,0.025]},{"bufferView":30,"componentType":5126,"count":24,"type":"VEC3"},{"bufferView":31,"componentType":5123,"count":36,"type":"SCALAR"},{"bufferView":32,"componentType":5126,"count":4,"type":"VEC3","min":[-0.7,-0.6697841726618704,0],"max":[0.7,0.6697841726618704,0]},{"bufferView":33,"componentType":5126,"count":4,"type":"VEC3"},{"bufferView":34,"componentType":5126,"count":4,"type":"VEC2"},{"bufferView":35,"componentType":5123,"count":6,"type":"SCALAR"},{"bufferView":36,"componentType":5126,"count":24,"type":"VEC3","min":[-0.76,-0.7297841726618703,-0.025],"max":[0.76,0.7297841726618703,0.025]},{"bufferView":37,"componentType":5126,"count":24,"type":"VEC3"},{"bufferView":38,"componentType":5123,"count":36,"type":"SCALAR"},{"bufferView":39,"componentType":5126,"count":4,"type":"VEC3","min":[-0.5474452554744526,-0.75,0],"max":[0.5474452554744526,0.75,0]},{"bufferView":40,"componentType":5126,"count":4,"type":"VEC3"},{"bufferView":41,"componentType":5126,"count":4,"type":"VEC2"},{"bufferView":42,"componentType":5123,"count":6,"type":"SCALAR"},{"bufferView":43,"componentType":5126,"count":24,"type":"VEC3","min":[-0.6074452554744525,-0.81,-0.025],"max":[0.6074452554744525,0.81,0.025]},{"bufferView":44,"componentType":5126,"count":24,"type":"VEC3"},{"bufferView":45,"componentType":5123,"count":36,"type":"SCALAR"},{"bufferView":46,"componentType":5126,"count":4,"type":"VEC3","min":[-0.9,-0.65,0],"max":[0.9,0.65,0]},{"bufferView":47,"componentType":5126,"count":4,"type":"VEC3"},{"bufferView":48,"componentType":5126,"count":4,"type":"VEC2"},{"bufferView":49,"componentType":5123,"count":6,"type":"SCALAR"},{"bufferView":50,"componentType":5126,"count":24,"type":"VEC3","min":[-0.96,-0.71,-0.025],"max":[0.96,0.71,0.025]},{"bufferView":51,"componentType":5126,"count":24,"type":"VEC3"},{"bufferView":52,"componentType":5123,"count":36,"type":"SCALAR"},{"bufferView":53,"componentType":5126,"count":4,"type":"VEC3","min":[-0.5258426966292135,-0.6,0],"max":[0.5258426966292135,0.6,0]},{"bufferView":54,"componentType":5126,"count":4,"type":"VEC3"},{"bufferView":55,"componentType":5126,"count":4,"type":"VEC2"},{"bufferView":56,"componentType":5123,"count":6,"type":"SCALAR"},{"bufferView":57,"componentType":5126,"count":24,"type":"VEC3","min":[-0.5858426966292134,-0.6599999999999999,-0.025],"max":[0.5858426966292134,0.6599999999999999,0.025]},{"bufferView":58,"componentType":5126,"count":24,"type":"VEC3"},{"bufferView":59,"componentType":5123,"count":36,"type":"SCALAR"},{"bufferView":60,"componentType":5126,"count":4,"type":"VEC3","min":[-0.5406593406593406,-0.6,0],"max":[0.5406593406593406,0.6,0]},{"bufferView":61,"componentType":5126,"count":4,"type":"VEC3"},{"bufferView":62,"componentType":5126,"count":4,"type":"VEC2"},{"bufferView":63,"componentType":5123,"count":6,"type":"SCALAR"},{"bufferView":64,"componentType":5126,"count":24,"type":"VEC3","min":[-0.6006593406593406,-0.6599999999999999,-0.025],"max":[0.6006593406593406,0.6599999999999999,0.025]},{"bufferView":65,"componentType":5126,"count":24,"type":"VEC3"},{"bufferView":66,"componentType":5123,"count":36,"type":"SCALAR"},{"bufferView":67,"componentType":5126,"count":4,"type":"VEC3","min":[-0.5917721518987342,-0.75,0],"max":[0.5917721518987342,0.75,0]},{"bufferView":68,"componentType":5126,"count":4,"type":"VEC3"},{"bufferView":69,"componentType":5126,"count":4,"type":"VEC2"},{"bufferView":70,"componentType":5123,"count":6,"type":"SCALAR"},{"bufferView":71,"componentType":5126,"count":24,"type":"VEC3","min":[-0.6517721518987343,-0.81,-0.025],"max":[0.6517721518987343,0.81,0.025]},{"bufferView":72,"componentType":5126,"count":24,"type":"VEC3"},{"bufferView":73,"componentType":5123,"count":36,"type":"SCALAR"},{"bufferView":74,"componentType":5126,"count":4,"type":"VEC3","min":[-0.35714285714285715,-0.5,0],"max":[0.35714285714285715,0.5,0]},{"bufferView":75,"componentType":5126,"count":4,"type":"VEC3"},{"bufferView":76,"componentType":5126,"count":4,"type":"VEC2"},{"bufferView":77,"componentType":5123,"count":6,"type":"SCALAR"},{"bufferView":78,"componentType":5126,"count":24,"type":"VEC3","min":[-0.41714285714285715,-0.56,-0.025],"max":[0.41714285714285715,0.56,0.025]},{"bufferView":79,"componentType":5126,"count":24,"type":"VEC3"},{"bufferView":80,"componentType":5123,"count":36,"type":"SCALAR"},{"bufferView":81,"componentType":5126,"count":4,"type":"VEC3","min":[-0.8,-0.6133333333333334,0],"max":[0.8,0.6133333333333334,0]},{"bufferView":82,"componentType":5126,"count":4,"type":"VEC3"},{"bufferView":83,"componentType":5126,"count":4,"type":"VEC2"},{"bufferView":84,"componentType":5123,"count":6,"type":"SCALAR"},{"bufferView":85,"componentType":5126,"count":24,"type":"VEC3","min":[-0.8600000000000001,-0.6733333333333333,-0.025],"max":[0.8600000000000001,0.6733333333333333,0.025]},{"bufferView":86,"componentType":5126,"count":24,"type":"VEC3"},{"bufferView":87,"componentType":5123,"count":36,"type":"SCALAR"},{"bufferView":88,"componentType":5126,"count":4,"type":"VEC3","min":[-1.0,-0.5518372703412073,0],"max":[1.0,0.5518372703412073,0]},{"bufferView":89,"componentType":5126,"count":4,"type":"VEC3"},{"bufferView":90,"componentType":5126,"count":4,"type":"VEC2"},{"bufferView":91,"componentType":5123,"count":6,"type":"SCALAR"},{"bufferView":92,"componentType":5126,"count":24,"type":"VEC3","min":[-1.06,-0.6118372703412074,-0.025],"max":[1.06,0.6118372703412074,0.025]},{"bufferView":93,"componentType":5126,"count":24,"type":"VEC3"},{"bufferView":94,"componentType":5123,"count":36,"type":"SCALAR"},{"bufferView":95,"componentType":5126,"count":4,"type":"VEC3","min":[-0.5341463414634147,-0.6,0],"max":[0.5341463414634147,0.6,0]},{"bufferView":96,"componentType":5126,"count":4,"type":"VEC3"},{"bufferView":97,"componentType":5126,"count":4,"type":"VEC2"},{"bufferView":98,"componentType":5123,"count":6,"type":"SCALAR"},{"bufferView":99,"componentType":5126,"count":24,"type":"VEC3","min":[-0.5941463414634147,-0.6599999999999999,-0.025],"max":[0.5941463414634147,0.6599999999999999,0.025]},{"bufferView":100,"componentType":5126,"count":24,"type":"VEC3"},{"bufferView":101,"componentType":5123,"count":36,"type":"SCALAR"},{"bufferView":102,"componentType":5126,"count":4,"type":"VEC3","min":[-0.9,-0.5071207430340557,0],"max":[0.9,0.5071207430340557,0]},{"bufferView":103,"componentType":5126,"count":4,"type":"VEC3"},{"bufferView":104,"componentType":5126,"count":4,"type":"VEC2"},{"bufferView":105,"componentType":5123,"count":6,"type":"SCALAR"},{"bufferView":106,"componentType":5126,"count":24,"type":"VEC3","min":[-0.96,-0.5671207430340557,-0.025],"max":[0.96,0.5671207430340557,0.025]},{"bufferView":107,"componentType":5126,"count":24,"type":"VEC3"},{"bufferView":108,"componentType":5123,"count":36,"type":"SCALAR"},{"bufferView":109,"componentType":5126,"count":4,"type":"VEC3","min":[-0.7,-0.5333333333333333,0],"max":[0.7,0.5333333333333333,0]},{"bufferView":110,"componentType":5126,"count":4,"type":"VEC3"},{"bufferView":111,"componentType":5126,"count":4,"type":"VEC2"},{"bufferView":112,"componentType":5123,"count":6,"type":"SCALAR"},{"bufferView":113,"componentType":5126,"count":24,"type":"VEC3","min":[-0.76,-0.5933333333333333,-0.025],"max":[0.76,0.5933333333333333,0.025]},{"bufferView":114,"componentType":5126,"count":24,"type":"VEC3"},{"bufferView":115,"componentType":5123,"count":36,"type":"SCALAR"},{"bufferView":116,"componentType":5126,"count":4,"type":"VEC3","min":[-0.9,-0.9,0],"max":[0.9,0.9,0]},{"bufferView":117,"componentType":5126,"count":4,"type":"VEC3"},{"bufferView":118,"componentType":5126,"count":4,"type":"VEC2"},{"bufferView":119,"componentType":5123,"count":6,"type":"SCALAR"},{"bufferView":120,"componentType":5126,"count":24,"type":"VEC3","min":[-0.96,-0.96,-0.025],"max":[0.96,0.96,0.025]},{"bufferView":121,"componentType":5126,"count":24,"type":"VEC3"},{"bufferView":122,"componentType":5123,"count":36,"type":"SCALAR"},{"bufferView":123,"componentType":5126,"count":4,"type":"VEC3","min":[-0.65,-0.573529411764706,0],"max":[0.65,0.573529411764706,0]},{"bufferView":124,"componentType":5126,"count":4,"type":"VEC3"},{"bufferView":125,"componentType":5126,"count":4,"type":"VEC2"},{"bufferView":126,"componentType":5123,"count":6,"type":"SCALAR"},{"bufferView":127,"componentType":5126,"count":24,"type":"VEC3","min":[-0.71,-0.6335294117647059,-0.025],"max":[0.71,0.6335294117647059,0.025]},{"bufferView":128,"componentType":5126,"count":24,"type":"VEC3"},{"bufferView":129,"componentType":5123,"count":36,"type":"SCALAR"}],"asset":{"extras":{"author":"Zeps3D (https://sketchfab.com/Zeps3D)","license":"CC-BY-4.0 (http://creativecommons.org/licenses/by/4.0/)","source":"https://sketchfab.com/3d-models/art-gallery-720b507d814740278c713d100def4c99","title":"Art Gallery"},"generator":"Sketchfab-17.3.0","version":"2.0"},"bufferViews":[{"buffer":0,"byteLength":618528,"name":"floatBufferViews","target":34963},{"buffer":0,"byteLength":610528,"byteOffset":618528,"byteStride":8,"name":"floatBufferViews","target":34962},{"buffer":0,"byteLength":1071720,"byteOffset":1229056,"byteStride":12,"name":"floatBufferViews","target":34962},{"buffer":0,"byteLength":447360,"byteOffset":2300776,"byteStride":16,"name":"floatBufferViews","target":34962},{"buffer":1,"byteOffset":0,"byteLength":48,"target":34962},{"buffer":1,"byteOffset":48,"byteLength":48,"target":34962},{"buffer":1,"byteOffset":96,"byteLength":32,"target":34962},{"buffer":1,"byteOffset":128,"byteLength":12,"target":34963},{"buffer":1,"byteOffset":140,"byteLength":288,"target":34962},{"buffer":1,"byteOffset":428,"byteLength":288,"target":34962},{"buffer":1,"byteOffset":716,"byteLength":72,"target":34963},{"buffer":1,"byteOffset":788,"byteLength":48,"target":34962},{"buffer":1,"byteOffset":836,"byteLength":48,"target":34962},{"buffer":1,"byteOffset":884,"byteLength":32,"target":34962},{"buffer":1,"byteOffset":916,"byteLength":12,"target":34963},{"buffer":1,"byteOffset":928,"byteLength":288,"target":34962},{"buffer":1,"byteOffset":1216,"byteLength":288,"target":34962},{"buffer":1,"byteOffset":1504,"byteLength":72,"target":34963},{"buffer":1,"byteOffset":1576,"byteLength":48,"target":34962},{"buffer":1,"byteOffset":1624,"byteLength":48,"target":34962},{"buffer":1,"byteOffset":1672,"byteLength":32,"target":34962},{"buffer":1,"byteOffset":1704,"byteLength":12,"target":34963},{"buffer":1,"byteOffset":1716,"byteLength":288,"target":34962},{"buffer":1,"byteOffset":2004,"byteLength":288,"target":34962},{"buffer":1,"byteOffset":2292,"byteLength":72,"target":34963},{"buffer":1,"byteOffset":2364,"byteLength":48,"target":34962},{"buffer":1,"byteOffset":2412,"byteLength":48,"target":34962},{"buffer":1,"byteOffset":2460,"byteLength":32,"target":34962},{"buffer":1,"byteOffset":2492,"byteLength":12,"target":34963},{"buffer":1,"byteOffset":2504,"byteLength":288,"target":34962},{"buffer":1,"byteOffset":2792,"byteLength":288,"target":34962},{"buffer":1,"byteOffset":3080,"byteLength":72,"target":34963},{"buffer":1,"byteOffset":3152,"byteLength":48,"target":34962},{"buffer":1,"byteOffset":3200,"byteLength":48,"target":34962},{"buffer":1,"byteOffset":3248,"byteLength":32,"target":34962},{"buffer":1,"byteOffset":3280,"byteLength":12,"target":34963},{"buffer":1,"byteOffset":3292,"byteLength":288,"target":34962},{"buffer":1,"byteOffset":3580,"byteLength":288,"target":34962},{"buffer":1,"byteOffset":3868,"byteLength":72,"target":34963},{"buffer":1,"byteOffset":3940,"byteLength":48,"target":34962},{"buffer":1,"byteOffset":3988,"byteLength":48,"target":34962},{"buffer":1,"byteOffset":4036,"byteLength":32,"target":34962},{"buffer":1,"byteOffset":4068,"byteLength":12,"target":34963},{"buffer":1,"byteOffset":4080,"byteLength":288,"target":34962},{"buffer":1,"byteOffset":4368,"byteLength":288,"target":34962},{"buffer":1,"byteOffset":4656,"byteLength":72,"target":34963},{"buffer":1,"byteOffset":4728,"byteLength":48,"target":34962},{"buffer":1,"byteOffset":4776,"byteLength":48,"target":34962},{"buffer":1,"byteOffset":4824,"byteLength":32,"target":34962},{"buffer":1,"byteOffset":4856,"byteLength":12,"target":34963},{"buffer":1,"byteOffset":4868,"byteLength":288,"target":34962},{"buffer":1,"byteOffset":5156,"byteLength":288,"target":34962},{"buffer":1,"byteOffset":5444,"byteLength":72,"target":34963},{"buffer":1,"byteOffset":5516,"byteLength":48,"target":34962},{"buffer":1,"byteOffset":5564,"byteLength":48,"target":34962},{"buffer":1,"byteOffset":5612,"byteLength":32,"target":34962},{"buffer":1,"byteOffset":5644,"byteLength":12,"target":34963},{"buffer":1,"byteOffset":5656,"byteLength":288,"target":34962},{"buffer":1,"byteOffset":5944,"byteLength":288,"target":34962},{"buffer":1,"byteOffset":6232,"byteLength":72,"target":34963},{"buffer":1,"byteOffset":6304,"byteLength":48,"target":34962},{"buffer":1,"byteOffset":6352,"byteLength":48,"target":34962},{"buffer":1,"byteOffset":6400,"byteLength":32,"target":34962},{"buffer":1,"byteOffset":6432,"byteLength":12,"target":34963},{"buffer":1,"byteOffset":6444,"byteLength":288,"target":34962},{"buffer":1,"byteOffset":6732,"byteLength":288,"target":34962},{"buffer":1,"byteOffset":7020,"byteLength":72,"target":34963},{"buffer":1,"byteOffset":7092,"byteLength":48,"target":34962},{"buffer":1,"byteOffset":7140,"byteLength":48,"target":34962},{"buffer":1,"byteOffset":7188,"byteLength":32,"target":34962},{"buffer":1,"byteOffset":7220,"byteLength":12,"target":34963},{"buffer":1,"byteOffset":7232,"byteLength":288,"target":34962},{"buffer":1,"byteOffset":7520,"byteLength":288,"target":34962},{"buffer":1,"byteOffset":7808,"byteLength":72,"target":34963},{"buffer":1,"byteOffset":7880,"byteLength":48,"target":34962},{"buffer":1,"byteOffset":7928,"byteLength":48,"target":34962},{"buffer":1,"byteOffset":7976,"byteLength":32,"target":34962},{"buffer":1,"byteOffset":8008,"byteLength":12,"target":34963},{"buffer":1,"byteOffset":8020,"byteLength":288,"target":34962},{"buffer":1,"byteOffset":8308,"byteLength":288,"target":34962},{"buffer":1,"byteOffset":8596,"byteLength":72,"target":34963},{"buffer":1,"byteOffset":8668,"byteLength":48,"target":34962},{"buffer":1,"byteOffset":8716,"byteLength":48,"target":34962},{"buffer":1,"byteOffset":8764,"byteLength":32,"target":34962},{"buffer":1,"byteOffset":8796,"byteLength":12,"target":34963},{"buffer":1,"byteOffset":8808,"byteLength":288,"target":34962},{"buffer":1,"byteOffset":9096,"byteLength":288,"target":34962},{"buffer":1,"byteOffset":9384,"byteLength":72,"target":34963},{"buffer":1,"byteOffset":9456,"byteLength":48,"target":34962},{"buffer":1,"byteOffset":9504,"byteLength":48,"target":34962},{"buffer":1,"byteOffset":9552,"byteLength":32,"target":34962},{"buffer":1,"byteOffset":9584,"byteLength":12,"target":34963},{"buffer":1,"byteOffset":9596,"byteLength":288,"target":34962},{"buffer":1,"byteOffset":9884,"byteLength":288,"target":34962},{"buffer":1,"byteOffset":10172,"byteLength":72,"target":34963},{"buffer":1,"byteOffset":10244,"byteLength":48,"target":34962},{"buffer":1,"byteOffset":10292,"byteLength":48,"target":34962},{"buffer":1,"byteOffset":10340,"byteLength":32,"target":34962},{"buffer":1,"byteOffset":10372,"byteLength":12,"target":34963},{"buffer":1,"byteOffset":10384,"byteLength":288,"target":34962},{"buffer":1,"byteOffset":10672,"byteLength":288,"target":34962},{"buffer":1,"byteOffset":10960,"byteLength":72,"target":34963},{"buffer":1,"byteOffset":11032,"byteLength":48,"target":34962},{"buffer":1,"byteOffset":11080,"byteLength":48,"target":34962},{"buffer":1,"byteOffset":11128,"byteLength":32,"target":34962},{"buffer":1,"byteOffset":11160,"byteLength":12,"target":34963},{"buffer":1,"byteOffset":11172,"byteLength":288,"target":34962},{"buffer":1,"byteOffset":11460,"byteLength":288,"target":34962},{"buffer":1,"byteOffset":11748,"byteLength":72,"target":34963},{"buffer":1,"byteOffset":11820,"byteLength":48,"target":34962},{"buffer":1,"byteOffset":11868,"byteLength":48,"target":34962},{"buffer":1,"byteOffset":11916,"byteLength":32,"target":34962},{"buffer":1,"byteOffset":11948,"byteLength":12,"target":34963},{"buffer":1,"byteOffset":11960,"byteLength":288,"target":34962},{"buffer":1,"byteOffset":12248,"byteLength":288,"target":34962},{"buffer":1,"byteOffset":12536,"byteLength":72,"target":34963},{"buffer":1,"byteOffset":12608,"byteLength":48,"target":34962},{"buffer":1,"byteOffset":12656,"byteLength":48,"target":34962},{"buffer":1,"byteOffset":12704,"byteLength":32,"target":34962},{"buffer":1,"byteOffset":12736,"byteLength":12,"target":34963},{"buffer":1,"byteOffset":12748,"byteLength":288,"target":34962},{"buffer":1,"byteOffset":13036,"byteLength":288,"target":34962},{"buffer":1,"byteOffset":13324,"byteLength":72,"target":34963},{"buffer":1,"byteOffset":13396,"byteLength":48,"target":34962},{"buffer":1,"byteOffset":13444,"byteLength":48,"target":34962},{"buffer":1,"byteOffset":13492,"byteLength":32,"target":34962},{"buffer":1,"byteOffset":13524,"byteLength":12,"target":34963},{"buffer":1,"byteOffset":13536,"byteLength":288,"target":34962},{"buffer":1,"byteOffset":13824,"byteLength":288,"target":34962},{"buffer":1,"byteOffset":14112,"byteLength":72,"target":34963}],"buffers":[{"byteLength":2748136,"uri":"scene.bin"},{"uri":"data:application/octet-stream;base64,","byteLength":14184}],"extensionsUsed":["KHR_materials_specular"],"images":[{"uri":"textures/floor_baseColor.png"},{"uri":"textures/floor_metallicRoughness.png"},{"uri":"textures/walls_baseColor.png"},{"uri":"textures/walls_metallicRoughness.png"},{"uri":"textures/walls_emissive.png"},{"uri":"textures/tree_baseColor.png"},{"uri":"textures/tree_metallicRoughness.png"},{"uri":"textures/tree_normal.png"},{"uri":"textures/statue_baseColor.png"},{"uri":"textures/statue_metallicRoughness.png"},{"uri":"textures/statue_normal.png"},{"uri":"textures/details_baseColor.png"},{"uri":"textures/details_metallicRoughness.png"},{"uri":"textures/details_emissive.png"},{"uri":"paintings/mona_lisa.jpg"},{"uri":"paintings/botticelli_primavera.jpg"},{"uri":"paintings/school_of_athens.jpg"},{"uri":"paintings/david_napoleon.jpg"},{"uri":"paintings/mantegna_triumphs.jpg"},{"uri":"paintings/van_eyck_arnolfini.jpg"},{"uri":"paintings/bruegel_hunters.jpg"},{"uri":"paintings/vermeer_pearl_earring.jpg"},{"uri":"paintings/vermeer_milkmaid.jpg"},{"uri":"paintings/friedrich_wanderer.jpg"},{"uri":"paintings/antonello_portrait.jpg"},{"uri":"paintings/renoir_luncheon.jpg"},{"uri":"paintings/hopper_nighthawks.jpg"},{"uri":"paintings/giorgione_tempest.jpg"},{"uri":"paintings/uccello_san_romano.jpg"},{"uri":"paintings/monet_sunrise.jpg"},{"uri":"paintings/klimt_kiss.jpg"},{"uri":"paintings/degas_dance.jpg"}],"materials":[{"extensions":{"KHR_materials_specular":{"specularColorFactor":[1.0,1.0,1.0],"specularFactor":1.0}},"name":"floor","occlusionTexture":{"index":1,"strength":0.6826894429953365},"pbrMetallicRoughness":{"baseColorTexture":{"index":0},"metallicFactor":0.0,"metallicRoughnessTexture":{"index":1}}},{"emissiveFactor":[1.0,1.0,1.0],"emissiveTexture":{"index":4},"extensions":{"KHR_materials_specular":{"specularColorFactor":[1.0,1.0,1.0],"specularFactor":0.5185247675853808}},"name":"walls","occlusionTexture":{"index":3},"pbrMetallicRoughness":{"baseColorTexture":{"index":2},"metallicFactor":0.0,"metallicRoughnessTexture":{"index":3}}},{"doubleSided":true,"extensions":{"KHR_materials_specular":{"specularColorFactor":[1.0,1.0,1.0],"specularFactor":0.317879053195435}},"name":"tree","normalTexture":{"index":7},"occlusionTexture":{"index":6},"pbrMetallicRoughness":{"baseColorTexture":{"index":5},"metallicFactor":0.7617316941186485,"metallicRoughnessTexture":{"index":6}}},{"name":"statue","normalTexture":{"index":10},"occlusionTexture":{"index":9},"pbrMetallicRoughness":{"baseColorTexture":{"index":8},"metallicFactor":0.0,"metallicRoughnessTexture":{"index":9}}},{"emissiveFactor":[1.0,1.0,1.0],"emissiveTexture":{"index":13},"name":"details","pbrMetallicRoughness":{"baseColorTexture":{"index":11},"metallicFactor":0.0,"metallicRoughnessTexture":{"index":12}}},{"name":"painting_frame_gold","pbrMetallicRoughness":{"baseColorFactor":[0.8,0.6,0.25,1.0],"metallicFactor":0.75,"roughnessFactor":0.35},"doubleSided":true},{"name":"painting_mona_lisa","pbrMetallicRoughness":{"baseColorTexture":{"index":14},"metallicFactor":0.0,"roughnessFactor":0.9},"doubleSided":true},{"name":"painting_botticelli_primavera","pbrMetallicRoughness":{"baseColorTexture":{"index":15},"metallicFactor":0.0,"roughnessFactor":0.9},"doubleSided":true},{"name":"painting_school_of_athens","pbrMetallicRoughness":{"baseColorTexture":{"index":16},"metallicFactor":0.0,"roughnessFactor":0.9},"doubleSided":true},{"name":"painting_david_napoleon","pbrMetallicRoughness":{"baseColorTexture":{"index":17},"metallicFactor":0.0,"roughnessFactor":0.9},"doubleSided":true},{"name":"painting_mantegna_triumphs","pbrMetallicRoughness":{"baseColorTexture":{"index":18},"metallicFactor":0.0,"roughnessFactor":0.9},"doubleSided":true},{"name":"painting_van_eyck_arnolfini","pbrMetallicRoughness":{"baseColorTexture":{"index":19},"metallicFactor":0.0,"roughnessFactor":0.9},"doubleSided":true},{"name":"painting_bruegel_hunters","pbrMetallicRoughness":{"baseColorTexture":{"index":20},"metallicFactor":0.0,"roughnessFactor":0.9},"doubleSided":true},{"name":"painting_vermeer_pearl_earring","pbrMetallicRoughness":{"baseColorTexture":{"index":21},"metallicFactor":0.0,"roughnessFactor":0.9},"doubleSided":true},{"name":"painting_vermeer_milkmaid","pbrMetallicRoughness":{"baseColorTexture":{"index":22},"metallicFactor":0.0,"roughnessFactor":0.9},"doubleSided":true},{"name":"painting_friedrich_wanderer","pbrMetallicRoughness":{"baseColorTexture":{"index":23},"metallicFactor":0.0,"roughnessFactor":0.9},"doubleSided":true},{"name":"painting_antonello_portrait","pbrMetallicRoughness":{"baseColorTexture":{"index":24},"metallicFactor":0.0,"roughnessFactor":0.9},"doubleSided":true},{"name":"painting_renoir_luncheon","pbrMetallicRoughness":{"baseColorTexture":{"index":25},"metallicFactor":0.0,"roughnessFactor":0.9},"doubleSided":true},{"name":"painting_hopper_nighthawks","pbrMetallicRoughness":{"baseColorTexture":{"index":26},"metallicFactor":0.0,"roughnessFactor":0.9},"doubleSided":true},{"name":"painting_giorgione_tempest","pbrMetallicRoughness":{"baseColorTexture":{"index":27},"metallicFactor":0.0,"roughnessFactor":0.9},"doubleSided":true},{"name":"painting_uccello_san_romano","pbrMetallicRoughness":{"baseColorTexture":{"index":28},"metallicFactor":0.0,"roughnessFactor":0.9},"doubleSided":true},{"name":"painting_monet_sunrise","pbrMetallicRoughness":{"baseColorTexture":{"index":29},"metallicFactor":0.0,"roughnessFactor":0.9},"doubleSided":true},{"name":"painting_klimt_kiss","pbrMetallicRoughness":{"baseColorTexture":{"index":30},"metallicFactor":0.0,"roughnessFactor":0.9},"doubleSided":true},{"name":"painting_degas_dance","pbrMetallicRoughness":{"baseColorTexture":{"index":31},"metallicFactor":0.0,"roughnessFactor":0.9},"doubleSided":true}],"meshes":[{"name":"floor_floor_0","primitives":[{"attributes":{"NORMAL":1,"POSITION":0,"TEXCOORD_0":2,"TEXCOORD_1":3},"indices":4,"material":0,"mode":4}]},{"name":"walls_walls_0","primitives":[{"attributes":{"NORMAL":6,"POSITION":5,"TEXCOORD_0":7,"TEXCOORD_1":8},"indices":9,"material":1,"mode":4}]},{"name":"Stairs_floor_0","primitives":[{"attributes":{"NORMAL":11,"POSITION":10,"TEXCOORD_0":12,"TEXCOORD_1":13},"indices":14,"material":0,"mode":4}]},{"name":"ceiling_walls_0","primitives":[{"attributes":{"NORMAL":16,"POSITION":15,"TEXCOORD_0":17,"TEXCOORD_1":18},"indices":19,"material":1,"mode":4}]},{"name":"tree2_tree_0","primitives":[{"attributes":{"NORMAL":21,"POSITION":20,"TANGENT":22,"TEXCOORD_0":23,"TEXCOORD_1":24},"indices":25,"material":2,"mode":4}]},{"name":"Statue_low_statue_0","primitives":[{"attributes":{"NORMAL":27,"POSITION":26,"TANGENT":28,"TEXCOORD_0":29},"indices":30,"material":3,"mode":4}]},{"name":"stand_details_0","primitives":[{"attributes":{"NORMAL":32,"POSITION":31,"TEXCOORD_0":33,"TEXCOORD_1":34},"indices":35,"material":4,"mode":4}]},{"name":"Window_details_0","primitives":[{"attributes":{"NORMAL":37,"POSITION":36,"TEXCOORD_0":38,"TEXCOORD_1":39},"indices":40,"material":4,"mode":4}]},{"name":"lights_details_0","primitives":[{"attributes":{"NORMAL":42,"POSITION":41,"TEXCOORD_0":43,"TEXCOORD_1":44},"indices":45,"material":4,"mode":4}]},{"name":"skyLight_details_0","primitives":[{"attributes":{"NORMAL":47,"POSITION":46,"TEXCOORD_0":48,"TEXCOORD_1":49},"indices":50,"material":4,"mode":4}]},{"name":"chairs_details_0","primitives":[{"attributes":{"NORMAL":52,"POSITION":51,"TEXCOORD_0":53,"TEXCOORD_1":54},"indices":55,"material":4,"mode":4}]},{"name":"corner_details_0","primitives":[{"attributes":{"NORMAL":57,"POSITION":56,"TEXCOORD_0":58,"TEXCOORD_1":59},"indices":60,"material":4,"mode":4}]},{"name":"exitSign_details_0","primitives":[{"attributes":{"NORMAL":62,"POSITION":61,"TEXCOORD_0":63,"TEXCOORD_1":64},"indices":65,"material":4,"mode":4}]},{"name":"Doors_details_0","primitives":[{"attributes":{"NORMAL":67,"POSITION":66,"TEXCOORD_0":68,"TEXCOORD_1":69},"indices":70,"material":4,"mode":4}]},{"name":"lights.001_details_0","primitives":[{"attributes":{"NORMAL":72,"POSITION":71,"TEXCOORD_0":73,"TEXCOORD_1":74},"indices":75,"material":4,"mode":4}]},{"name":"painting_mesh_mona_lisa","primitives":[{"attributes":{"POSITION":76,"NORMAL":77,"TEXCOORD_0":78},"indices":79,"material":6}]},{"name":"frame_mesh_mona_lisa","primitives":[{"attributes":{"POSITION":80,"NORMAL":81},"indices":82,"material":5}]},{"name":"painting_mesh_botticelli_primavera","primitives":[{"attributes":{"POSITION":83,"NORMAL":84,"TEXCOORD_0":85},"indices":86,"material":7}]},{"name":"frame_mesh_botticelli_primavera","primitives":[{"attributes":{"POSITION":87,"NORMAL":88},"indices":89,"material":5}]},{"name":"painting_mesh_school_of_athens","primitives":[{"attributes":{"POSITION":90,"NORMAL":91,"TEXCOORD_0":92},"indices":93,"material":8}]},{"name":"frame_mesh_school_of_athens","primitives":[{"attributes":{"POSITION":94,"NORMAL":95},"indices":96,"material":5}]},{"name":"painting_mesh_david_napoleon","primitives":[{"attributes":{"POSITION":97,"NORMAL":98,"TEXCOORD_0":99},"indices":100,"material":9}]},{"name":"frame_mesh_david_napoleon","primitives":[{"attributes":{"POSITION":101,"NORMAL":102},"indices":103,"material":5}]},{"name":"painting_mesh_mantegna_triumphs","primitives":[{"attributes":{"POSITION":104,"NORMAL":105,"TEXCOORD_0":106},"indices":107,"material":10}]},{"name":"frame_mesh_mantegna_triumphs","primitives":[{"attributes":{"POSITION":108,"NORMAL":109},"indices":110,"material":5}]},{"name":"painting_mesh_van_eyck_arnolfini","primitives":[{"attributes":{"POSITION":111,"NORMAL":112,"TEXCOORD_0":113},"indices":114,"material":11}]},{"name":"frame_mesh_van_eyck_arnolfini","primitives":[{"attributes":{"POSITION":115,"NORMAL":116},"indices":117,"material":5}]},{"name":"painting_mesh_bruegel_hunters","primitives":[{"attributes":{"POSITION":118,"NORMAL":119,"TEXCOORD_0":120},"indices":121,"material":12}]},{"name":"frame_mesh_bruegel_hunters","primitives":[{"attributes":{"POSITION":122,"NORMAL":123},"indices":124,"material":5}]},{"name":"painting_mesh_vermeer_pearl_earring","primitives":[{"attributes":{"POSITION":125,"NORMAL":126,"TEXCOORD_0":127},"indices":128,"material":13}]},{"name":"frame_mesh_vermeer_pearl_earring","primitives":[{"attributes":{"POSITION":129,"NORMAL":130},"indices":131,"material":5}]},{"name":"painting_mesh_vermeer_milkmaid","primitives":[{"attributes":{"POSITION":132,"NORMAL":133,"TEXCOORD_0":134},"indices":135,"material":14}]},{"name":"frame_mesh_vermeer_milkmaid","primitives":[{"attributes":{"POSITION":136,"NORMAL":137},"indices":138,"material":5}]},{"name":"painting_mesh_friedrich_wanderer","primitives":[{"attributes":{"POSITION":139,"NORMAL":140,"TEXCOORD_0":141},"indices":142,"material":15}]},{"name":"frame_mesh_friedrich_wanderer","primitives":[{"attributes":{"POSITION":143,"NORMAL":144},"indices":145,"material":5}]},{"name":"painting_mesh_antonello_portrait","primitives":[{"attributes":{"POSITION":146,"NORMAL":147,"TEXCOORD_0":148},"indices":149,"material":16}]},{"name":"frame_mesh_antonello_portrait","primitives":[{"attributes":{"POSITION":150,"NORMAL":151},"indices":152,"material":5}]},{"name":"painting_mesh_renoir_luncheon","primitives":[{"attributes":{"POSITION":153,"NORMAL":154,"TEXCOORD_0":155},"indices":156,"material":17}]},{"name":"frame_mesh_renoir_luncheon","primitives":[{"attributes":{"POSITION":157,"NORMAL":158},"indices":159,"material":5}]},{"name":"painting_mesh_hopper_nighthawks","primitives":[{"attributes":{"POSITION":160,"NORMAL":161,"TEXCOORD_0":162},"indices":163,"material":18}]},{"name":"frame_mesh_hopper_nighthawks","primitives":[{"attributes":{"POSITION":164,"NORMAL":165},"indices":166,"material":5}]},{"name":"painting_mesh_giorgione_tempest","primitives":[{"attributes":{"POSITION":167,"NORMAL":168,"TEXCOORD_0":169},"indices":170,"material":19}]},{"name":"frame_mesh_giorgione_tempest","primitives":[{"attributes":{"POSITION":171,"NORMAL":172},"indices":173,"material":5}]},{"name":"painting_mesh_uccello_san_romano","primitives":[{"attributes":{"POSITION":174,"NORMAL":175,"TEXCOORD_0":176},"indices":177,"material":20}]},{"name":"frame_mesh_uccello_san_romano","primitives":[{"attributes":{"POSITION":178,"NORMAL":179},"indices":180,"material":5}]},{"name":"painting_mesh_monet_sunrise","primitives":[{"attributes":{"POSITION":181,"NORMAL":182,"TEXCOORD_0":183},"indices":184,"material":21}]},{"name":"frame_mesh_monet_sunrise","primitives":[{"attributes":{"POSITION":185,"NORMAL":186},"indices":187,"material":5}]},{"name":"painting_mesh_klimt_kiss","primitives":[{"attributes":{"POSITION":188,"NORMAL":189,"TEXCOORD_0":190},"indices":191,"material":22}]},{"name":"frame_mesh_klimt_kiss","primitives":[{"attributes":{"POSITION":192,"NORMAL":193},"indices":194,"material":5}]},{"name":"painting_mesh_degas_dance","primitives":[{"attributes":{"POSITION":195,"NORMAL":196,"TEXCOORD_0":197},"indices":198,"material":23}]},{"name":"frame_mesh_degas_dance","primitives":[{"attributes":{"POSITION":199,"NORMAL":200},"indices":201,"material":5}]}],"nodes":[{"children":[1],"matrix":[1.0,0.0,0.0,0.0,0.0,2.220446049250313e-16,-1.0,0.0,0.0,1.0,2.220446049250313e-16,0.0,0.0,0.0,0.0,1.0],"name":"Sketchfab_model"},{"children":[2],"matrix":[0.009999999776482582,0.0,0.0,0.0,0.0,0.0,0.009999999776482582,0.0,0.0,-0.009999999776482582,0.0,0.0,0.0,0.0,0.0,1.0],"name":"b8987d732ba649a89f195d66e2db9f82.fbx"},{"children":[3,5,7,9,11,13,15,17,19,21,23,25,27,29,31,33],"name":"RootNode"},{"children":[4],"matrix":[100.0,0.0,0.0,0.0,0.0,-1.629206793918314e-05,-99.99999999999868,0.0,0.0,99.99999999999868,-1.629206793918314e-05,0.0,0.0,-16.205097198486328,0.0,1.0],"name":"floor"},{"mesh":0,"name":"floor_floor_0"},{"children":[6],"matrix":[100.0,0.0,0.0,0.0,0.0,-1.629206793918314e-05,-99.99999999999868,0.0,0.0,99.99999999999868,-1.629206793918314e-05,0.0,0.0,-56.558143615722656,0.0,1.0],"name":"walls"},{"mesh":1,"name":"walls_walls_0"},{"children":[8],"matrix":[4.371139006309477e-06,-1.1102230246251565e-14,-99.99999999999991,0.0,-99.99999999999982,-4.371139006309477e-06,-4.371139011860592e-06,0.0,-4.371139011860592e-06,99.99999999999991,-1.9984014443252818e-13,0.0,1358.8135986328125,-222.92298889160156,544.9984741210938,1.0],"name":"Stairs"},{"mesh":2,"name":"Stairs_floor_0"},{"children":[10],"matrix":[100.0,0.0,0.0,0.0,0.0,-1.629206793918314e-05,-99.99999999999868,0.0,0.0,99.99999999999868,-1.629206793918314e-05,0.0,0.0,420.44964599609375,0.0,1.0],"name":"ceiling"},{"mesh":3,"name":"ceiling_walls_0"},{"children":[12],"matrix":[40.53118740479985,8.368367107525694,91.03403102900387,0.0,-3.403784227479803,99.64923703991265,-7.644855152065275,0.0,-91.35446691104312,-5.142129523074605e-05,40.673860171803796,0.0,-137.59803771972656,97.39093780517578,-1190.37548828125,1.0],"name":"Camera"},{"name":"Object_12"},{"children":[14],"matrix":[1.0,0.0,0.0,0.0,0.0,0.9999999999999867,1.6292067073209113e-07,0.0,0.0,-1.6292067073209113e-07,0.9999999999999867,0.0,1535.04052734375,-250.22946166992188,0.0,1.0],"name":"tree2"},{"mesh":4,"name":"tree2_tree_0"},{"children":[16],"matrix":[22.50851265297942,1.4134146021796973e-06,30.216771269041686,0.0,-2.165162533586398e-06,37.67872238159173,-1.4962115185557067e-07,0.0,-30.216771269041644,-1.646989800224825e-06,22.508512652979462,0.0,790.3096923828125,20.73094940185547,-14.155827522277832,1.0],"name":"Statue_low"},{"mesh":5,"name":"Statue_low_statue_0"},{"children":[18],"matrix":[60.95492935180664,0.0,0.0,0.0,0.0,-9.930818502277425e-06,-60.95492935180584,0.0,0.0,44.535423278808004,-7.25574141758628e-06,0.0,811.3677978515625,-15.822982788085938,-2.0864009857177734,1.0],"name":"stand"},{"mesh":6,"name":"stand_details_0"},{"children":[20],"matrix":[7.549789959870878e-06,1.1102230246251565e-14,-99.9999999999997,0.0,-99.99886122952235,-0.47883053123054636,-7.5497039773294215e-06,0.0,-0.47883053123053526,99.99886122952263,-3.615068520563367e-08,0.0,2047.7987060546875,-5.133241653442383,355.4037170410156,1.0],"name":"Window"},{"mesh":7,"name":"Window_details_0"},{"children":[22],"matrix":[100.0,0.0,0.0,0.0,-0.0,-1.629206793918314e-05,-99.99999999999868,0.0,0.0,99.99999999999868,-1.629206793918314e-05,0.0,-815.1943359375,371.86676025390625,3.8880348205566406,1.0],"name":"lights"},{"mesh":8,"name":"lights_details_0"},{"children":[24],"matrix":[100.0,0.0,0.0,0.0,0.0,-1.629206793918314e-05,-99.99999999999868,0.0,0.0,99.99999999999868,-1.629206793918314e-05,0.0,0.0,420.44964599609375,0.0,1.0],"name":"skyLight"},{"mesh":9,"name":"skyLight_details_0"},{"children":[26],"matrix":[100.0,0.0,0.0,0.0,0.0,-1.629206793918314e-05,-99.99999999999868,0.0,0.0,99.99999999999868,-1.629206793918314e-05,0.0,452.8702697753906,12.939882278442383,-4.48375940322876,1.0],"name":"chairs"},{"mesh":10,"name":"chairs_details_0"},{"children":[28],"matrix":[100.0,0.0,0.0,0.0,-0.0,-1.629206793918314e-05,-99.99999999999868,0.0,0.0,99.99999999999868,-1.629206793918314e-05,0.0,-63.69171142578125,420.5586853027344,-747.117431640625,1.0],"name":"corner"},{"mesh":11,"name":"corner_details_0"},{"children":[30],"matrix":[25.031173706054688,0.0,0.0,0.0,0.0,-1.4743579111488401e-06,-9.049544334411502,0.0,0.0,9.049544334411502,-1.4743579111488401e-06,0.0,1643.224365234375,25.558561325073242,750.0197143554688,1.0],"name":"exitSign"},{"mesh":12,"name":"exitSign_details_0"},{"children":[32],"matrix":[100.0,0.0,0.0,0.0,0.0,-1.629206793918314e-05,-99.99999999999868,0.0,0.0,99.99999999999868,-1.629206793918314e-05,0.0,1643.2857666015625,-222.4851837158203,746.9235229492188,1.0],"name":"Doors"},{"mesh":13,"name":"Doors_details_0"},{"children":[34],"matrix":[100.0,0.0,0.0,0.0,-0.0,-1.629206793918314e-05,-99.99999999999868,0.0,0.0,99.99999999999868,-1.629206793918314e-05,0.0,-815.1943359375,371.86676025390625,3.8880348205566406,1.0],"name":"lights.001"},{"mesh":14,"name":"lights.001_details_0"},{"name":"painting_node_mona_lisa","mesh":15,"translation":[-7.0,1.7,-7.43],"rotation":[0.0,0.0,0.0,1.0]},{"name":"frame_node_mona_lisa","mesh":16,"translation":[-7.0,1.7,-7.465],"rotation":[0.0,0.0,0.0,1.0]},{"name":"painting_node_botticelli_primavera","mesh":17,"translation":[-4.3,1.7,-7.43],"rotation":[0.0,0.0,0.0,1.0]},{"name":"frame_node_botticelli_primavera","mesh":18,"translation":[-4.3,1.7,-7.465],"rotation":[0.0,0.0,0.0,1.0]},{"name":"painting_node_school_of_athens","mesh":19,"translation":[-1.6,1.7,-7.43],"rotation":[0.0,0.0,0.0,1.0]},{"name":"frame_node_school_of_athens","mesh":20,"translation":[-1.6,1.7,-7.465],"rotation":[0.0,0.0,0.0,1.0]},{"name":"painting_node_david_napoleon","mesh":21,"translation":[1.8,1.7,-7.43],"rotation":[0.0,0.0,0.0,1.0]},{"name":"frame_node_david_napoleon","mesh":22,"translation":[1.8,1.7,-7.465],"rotation":[0.0,0.0,0.0,1.0]},{"name":"painting_node_mantegna_triumphs","mesh":23,"translation":[5.0,1.7,-7.43],"rotation":[0.0,0.0,0.0,1.0]},{"name":"frame_node_mantegna_triumphs","mesh":24,"translation":[5.0,1.7,-7.465],"rotation":[0.0,0.0,0.0,1.0]},{"name":"painting_node_van_eyck_arnolfini","mesh":25,"translation":[14.1,1.7,-7.43],"rotation":[0.0,0.0,0.0,1.0]},{"name":"frame_node_van_eyck_arnolfini","mesh":26,"translation":[14.1,1.7,-7.465],"rotation":[0.0,0.0,0.0,1.0]},{"name":"painting_node_bruegel_hunters","mesh":27,"translation":[16.0,1.7,-7.43],"rotation":[0.0,0.0,0.0,1.0]},{"name":"frame_node_bruegel_hunters","mesh":28,"translation":[16.0,1.7,-7.465],"rotation":[0.0,0.0,0.0,1.0]},{"name":"painting_node_vermeer_pearl_earring","mesh":29,"translation":[10.27,1.85,0.0],"rotation":[0.0,0.7071067811865476,0.0,0.7071067811865476]},{"name":"frame_node_vermeer_pearl_earring","mesh":30,"translation":[10.235,1.85,0.0],"rotation":[0.0,0.7071067811865476,0.0,0.7071067811865476]},{"name":"painting_node_vermeer_milkmaid","mesh":31,"translation":[-5.5,1.7,7.43],"rotation":[0.0,1.0,0.0,0.0]},{"name":"frame_node_vermeer_milkmaid","mesh":32,"translation":[-5.5,1.7,7.465],"rotation":[0.0,1.0,0.0,0.0]},{"name":"painting_node_friedrich_wanderer","mesh":33,"translation":[-2.5,1.7,7.43],"rotation":[0.0,1.0,0.0,0.0]},{"name":"frame_node_friedrich_wanderer","mesh":34,"translation":[-2.5,1.7,7.465],"rotation":[0.0,1.0,0.0,0.0]},{"name":"painting_node_antonello_portrait","mesh":35,"translation":[-0.76,1.7,2.0],"rotation":[0.0,-0.7071067811865476,0.0,0.7071067811865476]},{"name":"frame_node_antonello_portrait","mesh":36,"translation":[-0.725,1.7,2.0],"rotation":[0.0,-0.7071067811865476,0.0,0.7071067811865476]},{"name":"painting_node_renoir_luncheon","mesh":37,"translation":[-9.93,1.7,-5.0],"rotation":[0.0,0.7071067811865476,0.0,0.7071067811865476]},{"name":"frame_node_renoir_luncheon","mesh":38,"translation":[-9.965,1.7,-5.0],"rotation":[0.0,0.7071067811865476,0.0,0.7071067811865476]},{"name":"painting_node_hopper_nighthawks","mesh":39,"translation":[-9.93,1.8,2.0],"rotation":[0.0,0.7071067811865476,0.0,0.7071067811865476]},{"name":"frame_node_hopper_nighthawks","mesh":40,"translation":[-9.965,1.8,2.0],"rotation":[0.0,0.7071067811865476,0.0,0.7071067811865476]},{"name":"painting_node_giorgione_tempest","mesh":41,"translation":[-0.76,1.7,-2.0],"rotation":[0.0,-0.7071067811865476,0.0,0.7071067811865476]},{"name":"frame_node_giorgione_tempest","mesh":42,"translation":[-0.725,1.7,-2.0],"rotation":[0.0,-0.7071067811865476,0.0,0.7071067811865476]},{"name":"painting_node_uccello_san_romano","mesh":43,"translation":[-9.93,1.7,-2.0],"rotation":[0.0,0.7071067811865476,0.0,0.7071067811865476]},{"name":"frame_node_uccello_san_romano","mesh":44,"translation":[-9.965,1.7,-2.0],"rotation":[0.0,0.7071067811865476,0.0,0.7071067811865476]},{"name":"painting_node_monet_sunrise","mesh":45,"translation":[11.8,1.7,-7.43],"rotation":[0.0,0.0,0.0,1.0]},{"name":"frame_node_monet_sunrise","mesh":46,"translation":[11.8,1.7,-7.465],"rotation":[0.0,0.0,0.0,1.0]},{"name":"painting_node_klimt_kiss","mesh":47,"translation":[-0.25,1.7,-2.0],"rotation":[0.0,0.7071067811865476,0.0,0.7071067811865476]},{"name":"frame_node_klimt_kiss","mesh":48,"translation":[-0.28500000000000003,1.7,-2.0],"rotation":[0.0,0.7071067811865476,0.0,0.7071067811865476]},{"name":"painting_node_degas_dance","mesh":49,"translation":[-0.25,1.7,2.0],"rotation":[0.0,0.7071067811865476,0.0,0.7071067811865476]},{"name":"frame_node_degas_dance","mesh":50,"translation":[-0.28500000000000003,1.7,2.0],"rotation":[0.0,0.7071067811865476,0.0,0.7071067811865476]}],"samplers":[{"magFilter":9729,"minFilter":9987,"wrapS":10497,"wrapT":10497},{"magFilter":9729,"minFilter":9987,"wrapS":33071,"wrapT":33071}],"scene":0,"scenes":[{"name":"Sketchfab_Scene","nodes":[0,35,36,37,38,39,40,41,42,43,44,45,46,47,48,49,50,51,52,53,54,55,56,57,58,59,60,61,62,63,64,65,66,67,68,69,70]}],"textures":[{"sampler":0,"source":0},{"sampler":0,"source":1},{"sampler":0,"source":2},{"sampler":0,"source":3},{"sampler":0,"source":4},{"sampler":0,"source":5},{"sampler":0,"source":6},{"sampler":0,"source":7},{"sampler":0,"source":8},{"sampler":0,"source":9},{"sampler":0,"source":10},{"sampler":0,"source":11},{"sampler":0,"source":12},{"sampler":0,"source":13},{"source":14,"sampler":1},{"source":15,"sampler":1},{"source":16,"sampler":1},{"source":17,"sampler":1},{"source":18,"sampler":1},{"source":19,"sampler":1},{"source":20,"sampler":1},{"source":21,"sampler":1},{"source":22,"sampler":1},{"source":23,"sampler":1},{"source":24,"sampler":1},{"source":25,"sampler":1},{"source":26,"sampler":1},{"source":27,"sampler":1},{"source":28,"sampler":1},{"source":29,"sampler":1},{"source":30,"sampler":1},{"source":31,"sampler":1}]}