{
  "asset": {
    "version": "2.0",
    "generator": "Beauty Salon Carre Generator"
  },
  "scene": 0,
  "scenes": [
    {
      "nodes": [
        0,
        1,
        2,
        3,
        4,
        5,
        6,
        7,
        8,
        9,
        10,
        11,
        12,
        13,
        14,
        15,
        16,
        17,
        18,
        19,
        20,
        21,
        22,
        23,
        24,
        25,
        26
      ]
    }
  ],
  "nodes": [
    {
      "mesh": 0,
      "name": "SalonCarre"
    },
    {
      "name": "Slot_Painting_N01",
      "translation": [
        -13.0,
        2.8,
        -5.0
      ],
      "rotation": [
        0,
        0,
        0,
        1
      ],
      "extras": {
        "slotType": "painting",
        "slotId": "n01",
        "maxWidth": 2.0,
        "maxHeight": 2.5,
        "facing": [
          0,
          0,
          1
        ],
        "label": "\u5317\u5899 #1"
      }
    },
    {
      "name": "Slot_Painting_N02",
      "translation": [
        -10.6,
        2.8,
        -5.0
      ],
      "rotation": [
        0,
        0,
        0,
        1
      ],
      "extras": {
        "slotType": "painting",
        "slotId": "n02",
        "maxWidth": 2.0,
        "maxHeight": 2.5,
        "facing": [
          0,
          0,
          1
        ],
        "label": "\u5317\u5899 #2"
      }
    },
    {
      "name": "Slot_Painting_N03",
      "translation": [
        -8.2,
        2.8,
        -5.0
      ],
      "rotation": [
        0,
        0,
        0,
        1
      ],
      "extras": {
        "slotType": "painting",
        "slotId": "n03",
        "maxWidth": 2.0,
        "maxHeight": 2.5,
        "facing": [
          0,
          0,
          1
        ],
        "label": "\u5317\u5899 #3"
      }
    },
    {
      "name": "Slot_Painting_N04",
      "translation": [
        -5.799999999999999,
        2.8,
        -5.0
      ],
      "rotation": [
        0,
        0,
        0,
        1
      ],
      "extras": {
        "slotType": "painting",
        "slotId": "n04",
        "maxWidth": 2.0,
        "maxHeight": 2.5,
        "facing": [
          0,
          0,
          1
        ],
        "label": "\u5317\u5899 #4"
      }
    },
    {
      "name": "Slot_Painting_N05",
      "translation": [
        -3.3999999999999986,
        2.8,
        -5.0
      ],
      "rotation": [
        0,
        0,
        0,
        1
      ],
      "extras": {
        "slotType": "painting",
        "slotId": "n05",
        "maxWidth": 2.0,
        "maxHeight": 2.5,
        "facing": [
          0,
          0,
          1
        ],
        "label": "\u5317\u5899 #5"
      }
    },
    {
      "name": "Slot_Painting_N06",
      "translation": [
        -0.9999999999999987,
        2.8,
        -5.0
      ],
      "rotation": [
        0,
        0,
        0,
        1
      ],
      "extras": {
        "slotType": "painting",
        "slotId": "n06",
        "maxWidth": 2.0,
        "maxHeight": 2.5,
        "facing": [
          0,
          0,
          1
        ],
        "label": "\u5317\u5899 #6"
      }
    },
    {
      "name": "Slot_Painting_N07",
      "translation": [
        1.4000000000000012,
        2.8,
        -5.0
      ],
      "rotation": [
        0,
        0,
        0,
        1
      ],
      "extras": {
        "slotType": "painting",
        "slotId": "n07",
        "maxWidth": 2.0,
        "maxHeight": 2.5,
        "facing": [
          0,
          0,
          1
        ],
        "label": "\u5317\u5899 #7"
      }
    },
    {
      "name": "Slot_Painting_N08",
      "translation": [
        3.800000000000001,
        2.8,
        -5.0
      ],
      "rotation": [
        0,
        0,
        0,
        1
      ],
      "extras": {
        "slotType": "painting",
        "slotId": "n08",
        "maxWidth": 2.0,
        "maxHeight": 2.5,
        "facing": [
          0,
          0,
          1
        ],
        "label": "\u5317\u5899 #8"
      }
    },
    {
      "name": "Slot_Painting_N09",
      "translation": [
        6.200000000000001,
        2.8,
        -5.0
      ],
      "rotation": [
        0,
        0,
        0,
        1
      ],
      "extras": {
        "slotType": "painting",
        "slotId": "n09",
        "maxWidth": 2.0,
        "maxHeight": 2.5,
        "facing": [
          0,
          0,
          1
        ],
        "label": "\u5317\u5899 #9"
      }
    },
    {
      "name": "Slot_Painting_N10",
      "translation": [
        8.600000000000001,
        2.8,
        -5.0
      ],
      "rotation": [
        0,
        0,
        0,
        1
      ],
      "extras": {
        "slotType": "painting",
        "slotId": "n10",
        "maxWidth": 2.0,
        "maxHeight": 2.5,
        "facing": [
          0,
          0,
          1
        ],
        "label": "\u5317\u5899 #10"
      }
    },
    {
      "name": "Slot_Painting_N11",
      "translation": [
        11.000000000000002,
        2.8,
        -5.0
      ],
      "rotation": [
        0,
        0,
        0,
        1
      ],
      "extras": {
        "slotType": "painting",
        "slotId": "n11",
        "maxWidth": 2.0,
        "maxHeight": 2.5,
        "facing": [
          0,
          0,
          1
        ],
        "label": "\u5317\u5899 #11"
      }
    },
    {
      "name": "Slot_Painting_S12",
      "translation": [
        -13.0,
        2.8,
        5.0
      ],
      "rotation": [
        0,
        0,
        0,
        1
      ],
      "extras": {
        "slotType": "painting",
        "slotId": "s12",
        "maxWidth": 2.0,
        "maxHeight": 2.5,
        "facing": [
          0,
          0,
          -1
        ],
        "label": "\u5357\u5899 #12"
      }
    },
    {
      "name": "Slot_Painting_S13",
      "translation": [
        -10.6,
        2.8,
        5.0
      ],
      "rotation": [
        0,
        0,
        0,
        1
      ],
      "extras": {
        "slotType": "painting",
        "slotId": "s13",
        "maxWidth": 2.0,
        "maxHeight": 2.5,
        "facing": [
          0,
          0,
          -1
        ],
        "label": "\u5357\u5899 #13"
      }
    },
    {
      "name": "Slot_Painting_S14",
      "translation": [
        -8.2,
        2.8,
        5.0
      ],
      "rotation": [
        0,
        0,
        0,
        1
      ],
      "extras": {
        "slotType": "painting",
        "slotId": "s14",
        "maxWidth": 2.0,
        "maxHeight": 2.5,
        "facing": [
          0,
          0,
          -1
        ],
        "label": "\u5357\u5899 #14"
      }
    },
    {
      "name": "Slot_Painting_S15",
      "translation": [
        -5.799999999999999,
        2.8,
        5.0
      ],
      "rotation": [
        0,
        0,
        0,
        1
      ],
      "extras": {
        "slotType": "painting",
        "slotId": "s15",
        "maxWidth": 2.0,
        "maxHeight": 2.5,
        "facing": [
          0,
          0,
          -1
        ],
        "label": "\u5357\u5899 #15"
      }
    },
    {
      "name": "Slot_Painting_S16",
      "translation": [
        -3.3999999999999986,
        2.8,
        5.0
      ],
      "rotation": [
        0,
        0,
        0,
        1
      ],
      "extras": {
        "slotType": "painting",
        "slotId": "s16",
        "maxWidth": 2.0,
        "maxHeight": 2.5,
        "facing": [
          0,
          0,
          -1
        ],
        "label": "\u5357\u5899 #16"
      }
    },
    {
      "name": "Slot_Painting_S17",
      "translation": [
        -0.9999999999999987,
        2.8,
        5.0
      ],
      "rotation": [
        0,
        0,
        0,
        1
      ],
      "extras": {
        "slotType": "painting",
        "slotId": "s17",
        "maxWidth": 2.0,
        "maxHeight": 2.5,
        "facing": [
          0,
          0,
          -1
        ],
        "label": "\u5357\u5899 #17"
      }
    },
    {
      "name": "Slot_Painting_S18",
      "translation": [
        1.4000000000000012,
        2.8,
        5.0
      ],
      "rotation": [
        0,
        0,
        0,
        1
      ],
      "extras": {
        "slotType": "painting",
        "slotId": "s18",
        "maxWidth": 2.0,
        "maxHeight": 2.5,
        "facing": [
          0,
          0,
          -1
        ],
        "label": "\u5357\u5899 #18"
      }
    },
    {
      "name": "Slot_Painting_S19",
      "translation": [
        3.800000000000001,
        2.8,
        5.0
      ],
      "rotation": [
        0,
        0,
        0,
        1
      ],
      "extras": {
        "slotType": "painting",
        "slotId": "s19",
        "maxWidth": 2.0,
        "maxHeight": 2.5,
        "facing": [
          0,
          0,
          -1
        ],
        "label": "\u5357\u5899 #19"
      }
    },
    {
      "name": "Slot_Painting_S20",
      "translation": [
        6.200000000000001,
        2.8,
        5.0
      ],
      "rotation": [
        0,
        0,
        0,
        1
      ],
      "extras": {
        "slotType": "painting",
        "slotId": "s20",
        "maxWidth": 2.0,
        "maxHeight": 2.5,
        "facing": [
          0,
          0,
          -1
        ],
        "label": "\u5357\u5899 #20"
      }
    },
    {
      "name": "Slot_Painting_S21",
      "translation": [
        8.600000000000001,
        2.8,
        5.0
      ],
      "rotation": [
        0,
        0,
        0,
        1
      ],
      "extras": {
        "slotType": "painting",
        "slotId": "s21",
        "maxWidth": 2.0,
        "maxHeight": 2.5,
        "facing": [
          0,
          0,
          -1
        ],
        "label": "\u5357\u5899 #21"
      }
    },
    {
      "name": "Slot_Painting_S22",
      "translation": [
        11.000000000000002,
        2.8,
        5.0
      ],
      "rotation": [
        0,
        0,
        0,
        1
      ],
      "extras": {
        "slotType": "painting",
        "slotId": "s22",
        "maxWidth": 2.0,
        "maxHeight": 2.5,
        "facing": [
          0,
          0,
          -1
        ],
        "label": "\u5357\u5899 #22"
      }
    },
    {
      "name": "Slot_Painting_East",
      "translation": [
        15.0,
        2.8,
        0
      ],
      "rotation": [
        0,
        0,
        0,
        1
      ],
      "extras": {
        "slotType": "painting",
        "slotId": "east",
        "maxWidth": 2.0,
        "maxHeight": 2.5,
        "facing": [
          -1,
          0,
          0
        ],
        "label": "\u4e1c\u5899\u5927\u5e45"
      }
    },
    {
      "name": "Slot_Painting_West",
      "translation": [
        -15.0,
        2.8,
        0
      ],
      "rotation": [
        0,
        0,
        0,
        1
      ],
      "extras": {
        "slotType": "painting",
        "slotId": "west",
        "maxWidth": 2.0,
        "maxHeight": 2.5,
        "facing": [
          1,
          0,
          0
        ],
        "label": "\u897f\u5899\u5927\u5e45"
      }
    },
    {
      "name": "Slot_Sculpture_Center",
      "translation": [
        0.0,
        0.0,
        0.0
      ],
      "rotation": [
        0,
        0,
        0,
        1
      ],
      "extras": {
        "slotType": "sculpture",
        "slotId": "center",
        "maxWidth": 2.0,
        "maxHeight": 3.0,
        "facing": [
          0,
          0,
          0
        ],
        "label": "\u4e2d\u592e\u96d5\u5851\u4f4d"
      }
    },
    {
      "name": "Slot_Spawn",
      "translation": [
        0.0,
        1.65,
        3.5
      ],
      "rotation": [
        0,
        0,
        0,
        1
      ],
      "extras": {
        "slotType": "spawn",
        "slotId": "spawn",
        "maxWidth": 0,
        "maxHeight": 0,
        "facing": [
          0,
          0,
          -1
        ],
        "label": "\u5165\u53e3"
      }
    }
  ],
  "meshes": [
    {
      "name": "SalonCarreMesh",
      "primitives": [
        {
          "attributes": {
            "POSITION": 0,
            "NORMAL": 1,
            "TEXCOORD_0": 2
          },
          "indices": 3,
          "material": 0
        },
        {
          "attributes": {
            "POSITION": 0,
            "NORMAL": 1,
            "TEXCOORD_0": 2
          },
          "indices": 4,
          "material": 1
        },
        {
          "attributes": {
            "POSITION": 0,
            "NORMAL": 1,
            "TEXCOORD_0": 2
          },
          "indices": 5,
          "material": 2
        },
        {
          "attributes": {
            "POSITION": 0,
            "NORMAL": 1,
            "TEXCOORD_0": 2
          },
          "indices": 6,
          "material": 3
        }
      ]
    }
  ],
  "materials": [
    {
      "name": "Floor",
      "pbrMetallicRoughness": {
        "baseColorTexture": {
          "index": 0
        },
        "metallicFactor": 0.05,
        "roughnessFactor": 0.35
      },
      "doubleSided": true
    },
    {
      "name": "VaultCeiling",
      "pbrMetallicRoughness": {
        "baseColorTexture": {
          "index": 2
        },
        "metallicFactor": 0.0,
        "roughnessFactor": 0.9
      },
      "doubleSided": true
    },
    {
      "name": "RedWall",
      "pbrMetallicRoughness": {
        "baseColorTexture": {
          "index": 1
        },
        "metallicFactor": 0.0,
        "roughnessFactor": 0.8
      },
      "doubleSided": true
    },
    {
      "name": "SlotFrame",
      "pbrMetallicRoughness": {
        "baseColorTexture": {
          "index": 3
        },
        "metallicFactor": 0.0,
        "roughnessFactor": 0.7
      },
      "alphaMode": "BLEND",
      "doubleSided": true
    }
  ],
  "textures": [
    {
      "source": 0,
      "sampler": 0
    },
    {
      "source": 1,
      "sampler": 0
    },
    {
      "source": 2,
      "sampler": 0
    },
    {
      "source": 3,
      "sampler": 0
    }
  ],
  "samplers": [
    {
      "magFilter": 9729,
      "minFilter": 9987,
      "wrapS": 10497,
      "wrapT": 10497
    }
  ],
  "images": [
    {
      "uri": "textures/floor_basecolor.png"
    },
    {
      "uri": "textures/wall_basecolor.png"
    },
    {
      "uri": "textures/ceiling_basecolor.png"
    },
    {
      "uri": "textures/slot_frame.png"
    }
  ],
  "buffers": [
    {
      "uri": "data:application/octet-stream;base64,",
      "byteLength": 37800
    }
  ],
  "bufferViews": [
    {
      "buffer": 0,
      "byteOffset": 0,
      "byteLength": 12960,
      "target": 34962
    },
    {
      "buffer": 0,
      "byteOffset": 12960,
      "byteLength": 12960,
      "target": 34962
    },
    {
      "buffer": 0,
      "byteOffset": 25920,
      "byteLength": 8640,
      "target": 34962
    },
    {
      "buffer": 0,
      "byteOffset": 34560,
      "byteLength": 3240,
      "target": 34963
    }
  ],
  "accessors": [
    {
      "bufferView": 0,
      "componentType": 5126,
      "count": 1080,
      "type": "VEC3",
      "min": [
        -15.0,
        0.0,
        -5.0
      ],
      "max": [
        15.0,
        8.0,
        5.0
      ]
    },
    {
      "bufferView": 1,
      "componentType": 5126,
      "count": 1080,
      "type": "VEC3"
    },
    {
      "bufferView": 2,
      "componentType": 5126,
      "count": 1080,
      "type": "VEC2"
    },
    {
      "bufferView": 3,
      "byteOffset": 0,
      "componentType": 5123,
      "count": 6,
      "type": "SCALAR"
    },
    {
      "bufferView": 3,
      "byteOffset": 12,
      "componentType": 5123,
      "count": 1440,
      "type": "SCALAR"
    },
    {
      "bufferView": 3,
      "byteOffset": 2892,
      "componentType": 5123,
      "count": 24,
      "type": "SCALAR"
    },
    {
      "bufferView": 3,
      "byteOffset": 2940,
      "componentType": 5123,
      "count": 150,
      "type": "SCALAR"
    }
  ]
}