{
  "asset": {
    "version": "2.0",
    "generator": "Beauty White Cube Generator"
  },
  "scene": 0,
  "scenes": [
    {
      "nodes": [
        0,
        1,
        2,
        3,
        4,
        5,
        6,
        7,
        8,
        9,
        10,
        11
      ]
    }
  ],
  "nodes": [
    {
      "mesh": 0,
      "name": "WhiteCube"
    },
    {
      "name": "Slot_Painting_North01",
      "translation": [
        -4.5,
        1.55,
        -5.0
      ],
      "rotation": [
        0,
        0,
        0,
        1
      ],
      "extras": {
        "slotType": "painting",
        "slotId": "north01",
        "maxWidth": 1.2,
        "maxHeight": 0.9,
        "facing": [
          0,
          0,
          1
        ],
        "label": "\u5317\u5899\u5de6"
      }
    },
    {
      "name": "Slot_Painting_North02",
      "translation": [
        0.0,
        1.55,
        -5.0
      ],
      "rotation": [
        0,
        0,
        0,
        1
      ],
      "extras": {
        "slotType": "painting",
        "slotId": "north02",
        "maxWidth": 1.2,
        "maxHeight": 0.9,
        "facing": [
          0,
          0,
          1
        ],
        "label": "\u5317\u5899\u4e2d"
      }
    },
    {
      "name": "Slot_Painting_North03",
      "translation": [
        4.5,
        1.55,
        -5.0
      ],
      "rotation": [
        0,
        0,
        0,
        1
      ],
      "extras": {
        "slotType": "painting",
        "slotId": "north03",
        "maxWidth": 1.2,
        "maxHeight": 0.9,
        "facing": [
          0,
          0,
          1
        ],
        "label": "\u5317\u5899\u53f3"
      }
    },
    {
      "name": "Slot_Painting_South01",
      "translation": [
        -3.0,
        1.55,
        5.0
      ],
      "rotation": [
        0,
        0,
        0,
        1
      ],
      "extras": {
        "slotType": "painting",
        "slotId": "south01",
        "maxWidth": 1.2,
        "maxHeight": 0.9,
        "facing": [
          0,
          0,
          -1
        ],
        "label": "\u5357\u5899\u5de6"
      }
    },
    {
      "name": "Slot_Painting_South02",
      "translation": [
        3.0,
        1.55,
        5.0
      ],
      "rotation": [
        0,
        0,
        0,
        1
      ],
      "extras": {
        "slotType": "painting",
        "slotId": "south02",
        "maxWidth": 1.2,
        "maxHeight": 0.9,
        "facing": [
          0,
          0,
          -1
        ],
        "label": "\u5357\u5899\u53f3"
      }
    },
    {
      "name": "Slot_Painting_East01",
      "translation": [
        7.5,
        1.55,
        -2.5
      ],
      "rotation": [
        0,
        0,
        0,
        1
      ],
      "extras": {
        "slotType": "painting",
        "slotId": "east01",
        "maxWidth": 1.2,
        "maxHeight": 0.9,
        "facing": [
          -1,
          0,
          0
        ],
        "label": "\u4e1c\u5899\u524d"
      }
    },
    {
      "name": "Slot_Painting_East02",
      "translation": [
        7.5,
        1.55,
        2.5
      ],
      "rotation": [
        0,
        0,
        0,
        1
      ],
      "extras": {
        "slotType": "painting",
        "slotId": "east02",
        "maxWidth": 1.2,
        "maxHeight": 0.9,
        "facing": [
          -1,
          0,
          0
        ],
        "label": "\u4e1c\u5899\u540e"
      }
    },
    {
      "name": "Slot_Painting_West01",
      "translation": [
        -7.5,
        1.55,
        -2.5
      ],
      "rotation": [
        0,
        0,
        0,
        1
      ],
      "extras": {
        "slotType": "painting",
        "slotId": "west01",
        "maxWidth": 1.2,
        "maxHeight": 0.9,
        "facing": [
          1,
          0,
          0
        ],
        "label": "\u897f\u5899\u524d"
      }
    },
    {
      "name": "Slot_Painting_West02",
      "translation": [
        -7.5,
        1.55,
        2.5
      ],
      "rotation": [
        0,
        0,
        0,
        1
      ],
      "extras": {
        "slotType": "painting",
        "slotId": "west02",
        "maxWidth": 1.2,
        "maxHeight": 0.9,
        "facing": [
          1,
          0,
          0
        ],
        "label": "\u897f\u5899\u540e"
      }
    },
    {
      "name": "Slot_Sculpture_Center",
      "translation": [
        0.0,
        0.0,
        0.0
      ],
      "rotation": [
        0,
        0,
        0,
        1
      ],
      "extras": {
        "slotType": "sculpture",
        "slotId": "center",
        "maxWidth": 2.0,
        "maxHeight": 3.0,
        "facing": [
          0,
          0,
          0
        ],
        "label": "\u4e2d\u592e\u96d5\u5851\u4f4d"
      }
    },
    {
      "name": "Slot_Spawn",
      "translation": [
        0.0,
        1.65,
        3.5
      ],
      "rotation": [
        0,
        0,
        0,
        1
      ],
      "extras": {
        "slotType": "spawn",
        "slotId": "spawn",
        "maxWidth": 0,
        "maxHeight": 0,
        "facing": [
          0,
          0,
          -1
        ],
        "label": "\u5165\u53e3"
      }
    }
  ],
  "meshes": [
    {
      "name": "WhiteCubeMesh",
      "primitives": [
        {
          "attributes": {
            "POSITION": 0,
            "NORMAL": 1,
            "TEXCOORD_0": 2
          },
          "indices": 3,
          "material": 0
        },
        {
          "attributes": {
            "POSITION": 0,
            "NORMAL": 1,
            "TEXCOORD_0": 2
          },
          "indices": 4,
          "material": 1
        },
        {
          "attributes": {
            "POSITION": 0,
            "NORMAL": 1,
            "TEXCOORD_0": 2
          },
          "indices": 5,
          "material": 2
        }
      ]
    }
  ],
  "materials": [
    {
      "name": "Floor",
      "pbrMetallicRoughness": {
        "baseColorTexture": {
          "index": 0
        },
        "metallicFactor": 0.1,
        "roughnessFactor": 0.3
      },
      "doubleSided": true
    },
    {
      "name": "Ceiling",
      "pbrMetallicRoughness": {
        "baseColorTexture": {
          "index": 2
        },
        "metallicFactor": 0.0,
        "roughnessFactor": 0.9
      },
      "doubleSided": true
    },
    {
      "name": "Wall",
      "pbrMetallicRoughness": {
        "baseColorTexture": {
          "index": 1
        },
        "metallicFactor": 0.0,
        "roughnessFactor": 0.85
      },
      "doubleSided": true
    }
  ],
  "textures": [
    {
      "source": 0,
      "sampler": 0
    },
    {
      "source": 1,
      "sampler": 0
    },
    {
      "source": 2,
      "sampler": 0
    }
  ],
  "samplers": [
    {
      "magFilter": 9729,
      "minFilter": 9987,
      "wrapS": 10497,
      "wrapT": 10497
    }
  ],
  "images": [
    {
      "uri": "textures/floor_basecolor.png"
    },
    {
      "uri": "textures/wall_basecolor.png"
    },
    {
      "uri": "textures/ceiling_basecolor.png"
    }
  ],
  "buffers": [
    {
      "uri": "data:application/octet-stream;base64,",
      "byteLength": 840
    }
  ],
  "bufferViews": [
    {
      "buffer": 0,
      "byteOffset": 0,
      "byteLength": 288,
      "target": 34962
    },
    {
      "buffer": 0,
      "byteOffset": 288,
      "byteLength": 288,
      "target": 34962
    },
    {
      "buffer": 0,
      "byteOffset": 576,
      "byteLength": 192,
      "target": 34962
    },
    {
      "buffer": 0,
      "byteOffset": 768,
      "byteLength": 72,
      "target": 34963
    }
  ],
  "accessors": [
    {
      "bufferView": 0,
      "componentType": 5126,
      "count": 24,
      "type": "VEC3",
      "min": [
        -7.5,
        0.0,
        -5.0
      ],
      "max": [
        7.5,
        5.0,
        5.0
      ]
    },
    {
      "bufferView": 1,
      "componentType": 5126,
      "count": 24,
      "type": "VEC3"
    },
    {
      "bufferView": 2,
      "componentType": 5126,
      "count": 24,
      "type": "VEC2"
    },
    {
      "bufferView": 3,
      "byteOffset": 0,
      "componentType": 5123,
      "count": 6,
      "type": "SCALAR"
    },
    {
      "bufferView": 3,
      "byteOffset": 12,
      "componentType": 5123,
      "count": 6,
      "type": "SCALAR"
    },
    {
      "bufferView": 3,
      "byteOffset": 24,
      "componentType": 5123,
      "count": 24,
      "type": "SCALAR"
    }
  ]
}